<svg xmlns="http://www.w3.org/2000/svg" id="Layer_1" viewBox="0 0 1000 196"><defs><style>.cls-1{fill:#fff;}.cls-1,.cls-2{stroke-width:0px;}.cls-2{fill:#08f;}</style></defs><path class="cls-1" d="m310.43,108.58c-2.59,6.13-6.13,11.38-10.65,15.74-4.51,4.36-9.79,7.76-15.82,10.19-6.03,2.43-12.55,3.65-19.55,3.65s-13.56-1.22-19.7-3.65c-6.13-2.43-11.46-5.83-15.97-10.19-4.51-4.36-8.06-9.61-10.65-15.74-2.59-6.13-3.88-12.9-3.88-20.31v-3.65c0-7.4,1.29-14.17,3.88-20.31,2.59-6.13,6.16-11.38,10.72-15.74,4.56-4.36,9.89-7.76,15.97-10.19,6.08-2.43,12.62-3.65,19.62-3.65s13.39,1.22,19.47,3.65c6.08,2.43,11.38,5.83,15.89,10.19,4.51,4.36,8.06,9.61,10.65,15.74,2.59,6.13,3.88,12.9,3.88,20.31v3.65c0,7.4-1.29,14.17-3.88,20.31Zm-17.19-35.74c-1.27-4.21-3.19-7.88-5.78-11.03-2.59-3.14-5.83-5.63-9.73-7.45-3.9-1.83-8.44-2.74-13.61-2.74s-9.66.91-13.46,2.74c-3.8,1.83-7,4.31-9.58,7.45-2.59,3.14-4.51,6.82-5.78,11.03-1.27,4.21-1.9,8.75-1.9,13.61s.69,9.41,2.05,13.61c1.37,4.21,3.37,7.88,6.01,11.03,2.64,3.14,5.86,5.63,9.66,7.45,3.8,1.83,8.19,2.74,13.16,2.74s9.35-.91,13.16-2.74c3.8-1.83,7.02-4.31,9.66-7.45,2.64-3.14,4.64-6.82,6.01-11.03,1.37-4.21,2.05-8.75,2.05-13.61s-.63-9.4-1.9-13.61Z"></path><path class="cls-1" d="m461.63,60.29c4.41,1.82,8.24,4.41,11.48,7.76,3.24,3.35,5.78,7.38,7.61,12.09,1.83,4.72,2.74,9.96,2.74,15.74,0,.91-.03,1.83-.08,2.74-.05.91-.08,1.72-.08,2.43,0,.91-.05,1.77-.15,2.59h-55.06c.81,5.78,2.84,10.49,6.08,14.15,3.24,3.65,7.81,5.48,13.69,5.48,4.26,0,7.73-.74,10.42-2.21,2.69-1.47,4.79-3.88,6.31-7.22h17.95c-2.03,8.11-6.19,14.22-12.47,18.33-6.29,4.11-13.89,6.16-22.82,6.16-5.27,0-10.22-.96-14.83-2.89-4.61-1.93-8.64-4.59-12.09-7.99-3.45-3.4-6.16-7.5-8.14-12.32-1.98-4.82-2.97-10.12-2.97-15.89v-2.43c0-5.78.99-11.08,2.97-15.89,1.98-4.82,4.69-8.95,8.14-12.4,3.45-3.45,7.45-6.14,12.02-8.06,4.56-1.93,9.48-2.89,14.75-2.89s10.12.91,14.53,2.74Zm-1.6,17.11c-2.74-3.19-6.84-4.79-12.32-4.79s-10.01,1.52-13,4.56c-2.99,3.04-5.04,7.05-6.16,12.02h36.05c-.3-4.66-1.83-8.59-4.56-11.79Z"></path><path class="cls-2" d="m645.76,37.02v16.58h-27.99v82.29h-19.16V53.6h-29.2v-16.58h76.36Z"></path><path class="cls-2" d="m689.2,60.29c4.41,1.82,8.24,4.41,11.48,7.76,3.24,3.35,5.78,7.38,7.61,12.09,1.82,4.72,2.74,9.96,2.74,15.74,0,.91-.03,1.83-.08,2.74-.05.91-.08,1.72-.08,2.43,0,.91-.05,1.77-.15,2.59h-55.06c.81,5.78,2.84,10.49,6.08,14.15,3.24,3.65,7.81,5.48,13.69,5.48,4.26,0,7.73-.74,10.42-2.21,2.69-1.47,4.79-3.88,6.31-7.22h17.95c-2.03,8.11-6.19,14.22-12.47,18.33-6.29,4.11-13.89,6.16-22.82,6.16-5.27,0-10.22-.96-14.83-2.89-4.62-1.93-8.65-4.59-12.09-7.99-3.45-3.4-6.16-7.5-8.14-12.32-1.98-4.82-2.97-10.12-2.97-15.89v-2.43c0-5.78.99-11.08,2.97-15.89,1.98-4.82,4.69-8.95,8.14-12.4,3.45-3.45,7.45-6.14,12.02-8.06,4.56-1.93,9.48-2.89,14.75-2.89s10.12.91,14.53,2.74Zm-1.6,17.11c-2.74-3.19-6.85-4.79-12.32-4.79s-10.01,1.52-13,4.56c-2.99,3.04-5.04,7.05-6.16,12.02h36.05c-.3-4.66-1.83-8.59-4.56-11.79Z"></path><path class="cls-2" d="m928.99,70.02c1.72-2.94,3.98-5.32,6.77-7.15,2.79-1.83,5.91-3.17,9.35-4.03,3.45-.86,6.9-1.29,10.34-1.29,3.96,0,7.65.43,11.1,1.29,3.45.86,6.46,2.16,9.05,3.88,2.59,1.72,4.69,3.96,6.31,6.69,1.62,2.74,2.53,6.03,2.74,9.89v1.52h-16.73c-.2-3.55-1.4-6.03-3.57-7.45-2.18-1.42-5.15-2.13-8.9-2.13-7.3,0-10.95,2.64-10.95,7.91,0,1.93.63,3.57,1.9,4.94,1.27,1.37,3.02,2.31,5.25,2.81s4.64.99,7.23,1.44c2.59.46,5.2,1.04,7.83,1.75,2.64.71,5.17,1.62,7.61,2.74,2.43,1.11,4.56,2.59,6.39,4.41,1.82,1.83,3.3,4.11,4.41,6.85,1.11,2.74,1.67,5.58,1.67,8.52v.76c0,4.56-.94,8.42-2.81,11.56-1.87,3.14-4.26,5.7-7.15,7.68-2.89,1.98-6.13,3.4-9.73,4.26-3.6.86-7.17,1.29-10.72,1.29-4.26,0-8.21-.48-11.86-1.44-3.65-.96-6.85-2.49-9.58-4.56-2.74-2.08-4.92-4.69-6.54-7.83-1.62-3.14-2.53-6.9-2.74-11.26v-1.52h17.34c0,4.46,1.11,7.68,3.35,9.66,2.23,1.98,5.68,2.97,10.34,2.97,3.96,0,6.97-.86,9.05-2.59,2.08-1.72,3.12-3.9,3.12-6.54,0-2.03-.63-3.85-1.9-5.48-1.27-1.62-3.52-2.89-6.77-3.8-1.82-.51-3.95-.96-6.39-1.37-2.43-.4-4.94-.91-7.53-1.52-2.59-.61-5.12-1.47-7.61-2.59-2.48-1.11-4.64-2.59-6.46-4.41-1.62-1.62-2.99-3.7-4.11-6.24-1.11-2.53-1.67-5.22-1.67-8.06v-.91c0-4.16.86-7.71,2.59-10.65Z"></path><path class="cls-1" d="m399.65,79.76c-2.03-4.77-4.72-8.8-8.06-12.09-3.35-3.3-7.17-5.83-11.48-7.6-4.31-1.77-8.7-2.66-13.16-2.66-4.97,0-9.63.76-13.99,2.28-3.92,1.37-7.41,3.91-10.51,7.49v-7.34h-18.08v103.43h18.41v-33.61h.3c2.23,2.43,5.07,4.46,8.52,6.08,3.45,1.62,8.16,2.43,14.15,2.43,5.47,0,10.47-.99,14.98-2.97,4.51-1.98,8.42-4.72,11.71-8.21,3.3-3.5,5.83-7.66,7.61-12.47,1.77-4.82,2.66-10.06,2.66-15.74v-2.89c0-5.98-1.01-11.36-3.04-16.12Zm-16.73,28.06c-.81,3.09-2.08,5.78-3.8,8.06-1.72,2.28-3.9,4.08-6.54,5.4-2.64,1.32-5.73,1.98-9.28,1.98s-6.62-.66-9.2-1.98c-2.59-1.32-4.74-3.12-6.46-5.4-1.72-2.28-3.02-4.97-3.88-8.06-.86-3.09-1.29-6.41-1.29-9.96s.43-6.84,1.29-9.89c.86-3.04,2.16-5.7,3.88-7.99,1.72-2.28,3.88-4.08,6.46-5.4,2.59-1.32,5.65-1.98,9.2-1.98s6.64.66,9.28,1.98c2.64,1.32,4.82,3.12,6.54,5.4,1.72,2.28,2.99,4.94,3.8,7.99.81,3.04,1.22,6.34,1.22,9.89s-.41,6.87-1.22,9.96Z"></path><path class="cls-1" d="m559.44,73.75c-1.37-3.3-3.27-6.13-5.7-8.52-2.43-2.38-5.35-4.26-8.75-5.63-3.4-1.37-7.17-2.05-11.33-2.05-4.56,0-8.77.89-12.63,2.66-3.54,1.63-6.68,4.32-9.45,7.96v-8.34h-18.08v76.05h18.41v-45.63c0-5.78,1.44-10.06,4.33-12.85,2.89-2.79,6.82-4.18,11.79-4.18,4.56,0,8.24,1.34,11.03,4.03,2.79,2.69,4.18,6.97,4.18,12.85v45.78h18.25v-51.26c0-3.96-.68-7.58-2.05-10.88Z"></path><path class="cls-2" d="m910.2,64.78c-4.72-4.82-11.13-7.23-19.24-7.23-1.93,0-4.01.23-6.24.69-2.23.46-4.41,1.19-6.54,2.2-2.13,1.01-4.16,2.31-6.08,3.88-1.93,1.57-3.6,3.47-5.02,5.7h-.3c-2.23-3.75-5.22-6.77-8.97-9.05-3.75-2.28-8.22-3.42-13.39-3.42-3.85,0-7.56.86-11.1,2.59-3.23,1.57-6.06,4.2-8.53,7.78v-8.08h-3.94s-14.14,0-14.14,0h0v76.05h18.4v-46.24c0-5.58,1.24-9.71,3.73-12.4,2.48-2.69,5.96-4.03,10.42-4.03,3.95,0,7.22,1.17,9.81,3.5,2.59,2.33,3.88,6.24,3.88,11.71v47.46h18.25v-46.85c0-5.78,1.32-9.86,3.96-12.25,2.64-2.38,6.08-3.57,10.34-3.57s7.45,1.17,9.89,3.5c2.44,2.33,3.65,6.39,3.65,12.17v47h18.25v-52.02c0-7.91-2.36-14.27-7.07-19.09Z"></path><path class="cls-2" d="m776.4,59.84v1.07h-.08v11.55c-5.37-8.41-13.16-12.62-23.36-12.62s-18.62,3.56-25.24,10.68c-6.63,7.12-9.94,16.27-9.94,27.46s3.33,20.39,10,27.59c6.67,7.21,15.01,10.81,25.04,10.81s17.86-4.52,23.5-13.56v12.49h18.17V59.84h-18.08Zm-5.99,54.31c-3.94,3.89-8.53,5.84-13.76,5.84s-9.83-1.97-13.76-5.91c-3.94-3.94-5.91-9.31-5.91-16.11s1.95-12.13,5.84-15.98c3.89-3.85,8.48-5.77,13.76-5.77s9.89,1.95,13.83,5.84c3.94,3.89,5.91,9.24,5.91,16.05s-1.97,12.15-5.91,16.05Z"></path><path class="cls-1" d="m92,177.54c-3.5.01-6.86-1.4-9.31-3.9-5.11-5.22-5.09-13.58.04-18.78,5.08-5.12,13.35-5.16,18.47-.08.04.04.08.08.11.11,5.15,5.24,5.08,13.67-.16,18.83-2.44,2.4-5.72,3.77-9.15,3.82Z"></path><path class="cls-1" d="m46.89,170.92c-.13,0-.26-.02-.39-.05-1.04-.04-1.97-.63-2.45-1.55-.97-2.27,1.81-6.3,3-8l.3-.43c4.27-6.4,12.91-17.18,19.61-25.01,6.88-8.05,12.81-14.26,16.38-17.97l.62-.65,1.07-1.12.17-.18c1.19-1.41,2.52-2.7,3.97-3.84.8-.6,1.78-.93,2.78-.93,1.02,0,2.02.33,2.86.93,1.12.94,2.17,1.95,3.15,3.04l.04.04,2.03,2.07.56.58c3.6,3.76,9.61,10.03,16.44,18.04,6.7,7.84,15.37,18.62,19.61,25.01,3.95,5.8,3.79,7.26,3.23,8.34-.46.93-1.37,1.55-2.4,1.65-.09,0-.17,0-.26,0-.91,0-2.13-.69-6.31-4.44-2.94-2.7-7.31-6.91-11.52-10.97h0c-2.56-2.46-4.98-4.78-7.01-6.71-3.07-3.24-6.56-6.04-10.37-8.35-1.96-.94-4.09-1.5-6.26-1.65-.7-.09-1.41-.13-2.11-.13h-1.64c-1.02,0-2.09,0-3.76.1-2.16.2-4.28.76-6.26,1.65-3.84,2.24-7.32,5.05-10.33,8.34-1.91,1.81-4.17,4-6.56,6.31h0c-4.4,4.27-8.96,8.65-11.99,11.38-4.08,3.8-5.3,4.51-6.18,4.51Z"></path><path class="cls-1" d="m161.49,146.58c-2.6-.47-5.04-1.59-7.1-3.24l-.43-.29c-6.06-4.08-16.83-12.42-25.61-19.82-8.22-6.93-14.57-12.81-19.19-17.18l-1.04-.98-.26-.25c-1.46-1.21-2.79-2.56-3.97-4.04-1.26-1.69-1.26-4,0-5.69.95-1.12,1.97-2.16,3.06-3.14l.03-.03,2.17-2.1.55-.53c3.84-3.64,10.3-9.73,18.63-16.65,8.02-6.77,19.05-15.52,25.61-19.82,4.76-3.2,6.48-3.57,7.35-3.57.41,0,.82.1,1.19.3.94.46,1.58,1.38,1.69,2.42.1.92-.15,1.83-4.53,6.64-1.95,2.04-4.61,4.75-7.43,7.63-3.84,3.91-7.79,7.94-10.8,11.14-3.3,3.08-6.17,6.59-8.54,10.44-.97,1.98-1.55,4.13-1.71,6.33-.12,1-.16,2.01-.12,3.02v.78c0,1.04,0,2.11.1,3.79.21,2.19.79,4.33,1.71,6.33,2.3,3.89,5.18,7.41,8.54,10.44,2.16,2.25,4.82,4.96,7.62,7.82,3.93,4.01,8,8.15,10.61,10.95,4.38,4.7,4.75,5.66,4.53,6.64-.27,1.78-1.18,2.68-2.68,2.68Z"></path><path class="cls-1" d="m24.65,146.58c-1.5,0-2.39-.9-2.65-2.69-.1-.93.15-1.83,4.53-6.64,2.61-2.8,6.68-6.95,10.62-10.96h0c2.8-2.86,5.45-5.55,7.61-7.8,3.3-3.08,6.17-6.59,8.54-10.44.96-1.98,1.53-4.13,1.69-6.33.12-1,.16-2.01.12-3.02v-.77c0-1.04,0-2.11-.11-3.79-.2-2.19-.76-4.33-1.67-6.34-2.3-3.89-5.18-7.41-8.54-10.44-2.16-2.25-4.8-4.93-7.59-7.78h0c-3.94-4.02-8.02-8.17-10.64-10.98-4.39-4.7-4.77-5.67-4.55-6.65.18-1.02.81-1.91,1.71-2.42.36-.2.77-.3,1.19-.3.85,0,2.59.37,7.35,3.57,6.04,4.06,16.81,12.38,25.61,19.82,7.12,6,12.92,11.39,16.77,14.94.92.85,1.71,1.59,2.42,2.24l1.15,1.08.18.17c1.45,1.2,2.77,2.55,3.94,4.02,1.26,1.69,1.26,4,0,5.69-.96,1.13-1.99,2.19-3.1,3.17l-.04.04-2.13,2.06-.51.48c-3.84,3.65-10.3,9.74-18.68,16.71-8.03,6.77-19.07,15.53-25.61,19.82l-.38.26c-2.09,1.67-4.57,2.8-7.21,3.28Z"></path><path class="cls-1" d="m157.66,113.39c-3.5.01-6.86-1.4-9.31-3.9-5.16-5.24-5.09-13.67.15-18.83,2.45-2.41,5.72-3.77,9.15-3.82,3.5-.01,6.86,1.4,9.31,3.9,5.1,5.21,5.1,13.54,0,18.75-2.45,2.5-5.81,3.91-9.31,3.9Z"></path><path class="cls-1" d="m26.33,113.39c-3.5,0-6.85-1.4-9.29-3.9-5.16-5.24-5.09-13.67.15-18.83,2.45-2.41,5.72-3.77,9.15-3.82,3.5-.01,6.86,1.4,9.31,3.9,5.16,5.24,5.09,13.67-.15,18.83-2.45,2.41-5.72,3.77-9.15,3.82h-.02Z"></path><path class="cls-1" d="m91.94,86.84c-1,0-1.98-.33-2.78-.93-1.1-.92-2.13-1.92-3.09-2.99h0l-2.1-2.13-.56-.58c-3.6-3.76-9.61-10.03-16.45-18.05-6.71-7.86-15.37-18.63-19.62-25.03l-.26-.38c-1.2-1.75-4.02-5.84-3.02-8.11.49-.9,1.42-1.47,2.45-1.49.09,0,.17,0,.26,0,.91,0,2.13.69,6.31,4.44,2.94,2.71,7.33,6.93,11.58,11.01,2.56,2.45,4.95,4.76,6.99,6.69,3.05,3.22,6.52,6.01,10.32,8.31,1.96.94,4.09,1.5,6.26,1.65.7.09,1.4.13,2.1.13h1.65c1.02,0,2.09,0,3.76-.1,2.16-.21,4.27-.77,6.24-1.67,3.85-2.24,7.33-5.04,10.34-8.32,1.93-1.84,4.22-4.04,6.63-6.37,4.38-4.23,8.91-8.61,11.95-11.33,4.08-3.76,5.32-4.47,6.18-4.47.13,0,.27.02.4.05,1,.17,1.88.77,2.4,1.65.55,1.08.72,2.56-3.23,8.34-4.25,6.4-12.91,17.17-19.61,25.01-6.83,7.99-12.75,14.19-16.3,17.89l-.7.74-1.23,1.28c-1.2,1.41-2.53,2.7-3.99,3.84-.84.61-1.84.94-2.88.95Z"></path><path class="cls-1" d="m92,47.01c-3.5.01-6.86-1.4-9.31-3.9-5.16-5.24-5.09-13.67.15-18.83,2.45-2.41,5.72-3.77,9.15-3.82,3.5-.01,6.86,1.4,9.31,3.9,2.47,2.5,3.85,5.88,3.84,9.39.12,7.21-5.63,13.15-12.84,13.27-.1,0-.2,0-.3,0l-.02-.02Z"></path></svg>